<?xml version="1.0" encoding="utf-8"?>
<svg xmlns="http://www.w3.org/2000/svg" width="600" height="600" viewBox="0 0 158.75 158.75" version="1.1" id="svg4953">
    <title id="title4965">QFlowCrate</title>
    <defs id="defs4947"/>
    <g transform="matrix(1, 0, 0, 1, -0.405499, -0.009499)">
        <path d="M 83.176 83.249 L 83.138 97.287 L 71.514 85.568 L 71.551 72.13 L 85.451 72.13 L 96.484 83.249 L 83.176 83.249 Z" style="stroke-width: 33.333; fill: rgb(57, 152, 159);"/>
        <path d="M 83.338 106.927 L 96.386 119.884 C 91.304 121.583 86.458 122.676 79.596 122.676 C 53.027 122.676 33.151 103.388 33.221 77.71 C 33.29 52.165 53.268 33.25 79.839 33.25 C 106.534 33.25 126.41 52.289 126.34 77.71 C 126.318 85.863 124.27 93.383 120.628 99.855 L 106.602 85.53 C 107.232 83.008 107.551 80.421 107.554 77.826 C 107.598 61.327 95.418 48.886 80.083 48.886 C 64.742 48.886 51.928 61.327 51.883 77.826 C 51.839 94.323 64.725 107.042 79.923 107.042 C 82.05 107.042 82.488 107.106 83.338 106.927 Z" style="stroke-width: 33.333; fill: rgb(77, 78, 76);"/>
        <path d="M 125.335 112.492 L 125.3 125.519 L 111.123 125.519 L 88.951 102.839 L 88.988 89.185 L 102.001 89.185 L 125.335 112.492 Z" style="stroke-width: 33.333; fill: rgb(77, 78, 76);"/>
    </g>
    <g id="g3771" transform="matrix(0.449617, 0, 0, 0.449617, 400.761847, 20.792694)">
        <g aria-label="{" style="font-style:normal;font-weight:normal;font-size:70.52535248px;line-height:1.25;font-family:sans-serif;letter-spacing:0px;word-spacing:0px;fill:#916f6f;fill-opacity:1;stroke:none;stroke-width:1.76313376" id="text13">
            <path d="m -891.33986,115.23347 v 18.95722 h 7.10895 c 5.75487,0 14.55643,-0.33853 21.32687,6.77043 6.77043,6.43191 8.80156,16.24904 8.80156,30.80547 0,10.49418 -1.01556,20.64983 -1.01556,33.85217 0,12.18678 1.01556,35.54478 18.61869,49.08565 14.89495,11.17122 32.15956,10.15565 53.14791,10.15565 h 12.18678 v -18.95721 h -12.5253 c -13.87939,0 -24.71209,0.67704 -33.85217,-5.75487 -12.18679,-8.12452 -13.87939,-23.01948 -13.87939,-34.52922 0,-9.14008 1.01556,-17.94165 1.01556,-28.43582 0,-35.54478 -15.572,-48.4086 -28.43582,-52.80938 10.49417,-4.40079 18.95721,-12.52531 24.03504,-22.68096 4.40078,-9.140084 5.41635,-19.295735 5.41635,-27.081734 0,-8.463042 -1.01557,-15.91052 -1.01557,-24.03504 0,-6.770434 0.67704,-23.357998 13.54087,-31.482518 9.14008,-5.754869 19.29574,-4.062261 34.19069,-4.062261 h 11.84826 V -4.2646895 h -10.49417 c -17.94165,0 -39.60704,-1.3540867 -55.85608,13.540868 -14.89496,13.5408675 -16.92609,32.4980825 -16.92609,45.3619075 0,8.124521 1.01557,15.91052 1.01557,24.035041 0,8.463042 -1.01557,20.311301 -8.80157,28.774343 -7.44747,7.786 -16.58756,7.786 -22.68095,7.786 z" style="font-style:normal;font-variant:normal;font-weight:normal;font-stretch:normal;font-size:338.521698px;font-family:Inconsolata;-inkscape-font-specification:Inconsolata;fill:#916f6f;stroke-width:1.76313376" id="path3720"/>
        </g>
        <g aria-label="}" style="font-style:normal;font-weight:normal;font-size:70.52535248px;line-height:1.25;font-family:sans-serif;letter-spacing:0px;word-spacing:0px;fill:#916f6f;fill-opacity:1;stroke:none;stroke-width:1.76313376" id="text13-3">
            <path d="m -538.26184,115.23348 h -6.43191 c -6.0934,0 -15.572,0 -22.68096,-7.786 -8.12452,-8.463046 -8.80157,-20.311307 -8.80157,-28.77435 0,-8.124522 0.67705,-15.910521 0.67705,-24.035043 0,-12.863826 -1.69261,-31.821042 -16.58757,-45.3619115 -16.24904,-14.894956 -37.91443,-13.5408691 -56.1946,-13.5408691 h -10.15566 V 15.031045 h 11.50974 c 14.89496,0 25.38913,-1.692609 34.1907,4.062261 13.20235,8.124521 13.87939,24.712086 13.87939,31.48252 0,8.124522 -1.01557,15.572 -1.01557,24.035043 0,7.786 0.67705,17.941652 5.07783,27.081741 5.07783,10.15565 13.87939,18.28017 24.37356,22.68095 -12.86382,4.40079 -28.77434,17.26461 -28.77434,52.80939 0,10.49418 1.01556,19.29574 1.01556,28.43583 0,11.50974 -1.69261,26.40469 -13.87939,34.52921 -9.14009,6.43192 -19.63426,5.75487 -33.51365,5.75487 h -12.5253 v 18.95722 h 12.18678 c 20.98835,0 38.25295,1.01557 52.80939,-10.15565 17.94165,-13.54087 18.95721,-36.89887 18.95721,-49.08565 0,-13.20235 -1.35408,-23.358 -1.35408,-33.85217 0,-14.55644 2.36965,-24.37357 8.80156,-30.80548 7.10896,-7.10896 15.91052,-6.77044 21.66539,-6.77044 h 6.77044 z" style="font-style:normal;font-variant:normal;font-weight:normal;font-stretch:normal;font-size:338.52172852px;font-family:Inconsolata;-inkscape-font-specification:Inconsolata;fill:#916f6f;stroke-width:1.76313376" id="path3723"/>
        </g>
    </g>
</svg>
